<svg id="Layer_1" enable-background="new 0 0 128 128" height="512" viewBox="0 0 128 128" width="512" xmlns="http://www.w3.org/2000/svg"><path d="m12 27.8h104v72.5h-104z" fill="#f0f0f0"/><g fill="#0b55b1"><path d="m12 27.8h104v12.2h-104z"/><path d="m12 88h104v12.2h-104z"/><path d="m75.8 64 4.4-8c.5-.8.2-1.9-.7-2.4-.3-.1-.5-.2-.8-.2h-8.7l-4.5-8.2c-.5-.8-1.5-1.2-2.4-.7-.3.2-.5.4-.7.7l-4.4 8.2h-8.6c-1 0-1.7.8-1.7 1.8 0 .3.1.6.2.8l4.4 8-4.4 8c-.5.8-.2 1.9.7 2.4.3.1.5.2.8.2h8.6l4.5 8.2c.5.8 1.5 1.2 2.4.7.3-.2.5-.4.7-.7l4.5-8.2h8.6c1 0 1.7-.8 1.7-1.8 0-.3-.1-.6-.2-.8zm-.2-7.1-1.9 3.4-1.9-3.4zm-3.8 7.1-3.9 7.1h-7.8l-3.9-7.1 3.9-7.1h7.8zm-7.8-14.2 2 3.7h-4zm-11.6 7.1h3.7l-1.9 3.4zm0 14.2 1.9-3.4 1.9 3.4zm11.6 7.1-2-3.7h4zm7.9-7.1 1.9-3.4 1.9 3.4z"/></g></svg>